# xmcd
#
# Track frame offsets:
#	150
#	20970
#	36944
#	57520
#	77874
#	97621
#	114235
#	131024
#	148080
#	165020
#
# Disc length: 2458 seconds
# Revision: 0
# Processed by: cddbd v1.5.2PL0 Copyright (c) Steve Scherf et al.
# Submitted via: dBpowerAMP V12.0
#
DISCID=7d09980a
DTITLE=Rod Picott - Tiger Tom Dixon's Blues
DYEAR=2001
DGENRE=Country
TTITLE0=Tiger Tom Dixon's Blues
TTITLE1=Broke Down
TTITLE2=Bring It On
TTITLE3=Haunted Man
TTITLE4=On and On
TTITLE5=Torn in Two
TTITLE6=All About You
TTITLE7=Not That Strong
TTITLE8=Gettin' to Me
TTITLE9=You Don't Know
EXTD=
EXTT0=
EXTT1=
EXTT2=
EXTT3=
EXTT4=
EXTT5=
EXTT6=
EXTT7=
EXTT8=
EXTT9=
PLAYORDER=
